<svg width="320" height="229" viewBox="0 0 320 229" fill="none" xmlns="http://www.w3.org/2000/svg">
<path d="M160 0.5C233.126 0.5 299.305 13.3078 347.185 33.9951C371.125 44.3392 390.467 56.6437 403.817 70.2812C417.165 83.9165 424.5 98.8585 424.5 114.5C424.5 130.142 417.165 145.083 403.817 158.719C390.467 172.356 371.125 184.661 347.185 195.005C299.305 215.692 233.126 228.5 160 228.5C86.874 228.5 20.6947 215.692 -27.1846 195.005C-51.125 184.661 -70.4674 172.356 -83.8174 158.719C-97.1652 145.083 -104.5 130.142 -104.5 114.5C-104.5 98.8585 -97.1652 83.9165 -83.8174 70.2812C-70.4674 56.6437 -51.125 44.3392 -27.1846 33.9951C20.6947 13.3078 86.874 0.5 160 0.5Z" fill="url(#paint0_radial_1_979)" stroke="#B48CDE"/>
<defs>
<radialGradient id="paint0_radial_1_979" cx="0" cy="0" r="1" gradientUnits="userSpaceOnUse" gradientTransform="translate(160 114.5) rotate(90) scale(117.662 272.318)">
<stop offset="0.822011"/>
<stop offset="1" stop-color="#9560EB"/>
</radialGradient>
</defs>
</svg>
