<svg width="46" height="46" viewBox="0 0 46 46" fill="none" xmlns="http://www.w3.org/2000/svg">
<path fill-rule="evenodd" clip-rule="evenodd" d="M19.3774 10.5604L33.2733 18.5912C35.0466 19.6199 36.1381 21.5149 36.1381 23.565C36.1381 25.615 35.0466 27.5101 33.2733 28.5387L19.3774 36.5696C17.5978 37.597 15.4051 37.5967 13.6258 36.5686C11.8466 35.5406 10.7511 33.6412 10.7524 31.5862V15.5437C10.7511 13.4888 11.8466 11.5894 13.6258 10.5613C15.4051 9.53328 17.5978 9.53293 19.3774 10.5604ZM17.6524 33.5796L31.5483 25.5679C32.2633 25.1597 32.7028 24.3979 32.6983 23.5746C32.7057 22.7455 32.2663 21.9766 31.5483 21.5621L17.6524 13.5504C17.3049 13.3415 16.9079 13.229 16.5024 13.2246C15.2216 13.2246 14.1833 14.2629 14.1833 15.5437V31.5862C14.1833 32.2013 14.4276 32.7912 14.8626 33.2261C15.2975 33.6611 15.8874 33.9054 16.5024 33.9054C16.9079 33.9009 17.3049 33.7885 17.6524 33.5796Z" fill="white"/>
</svg>
